<?xml version="1.0" ?><!DOCTYPE svg  PUBLIC '-//W3C//DTD SVG 1.1//EN'  'http://www.w3.org/Graphics/SVG/1.1/DTD/svg11.dtd'><svg height="2.7092mm" style="shape-rendering:geometricPrecision; text-rendering:geometricPrecision; image-rendering:optimizeQuality; fill-rule:evenodd; clip-rule:evenodd" version="1.1" viewBox="0 0 270.92 270.92" width="2.7092mm" xml:space="preserve" xmlns="http://www.w3.org/2000/svg" xmlns:xlink="http://www.w3.org/1999/xlink"><defs><style type="text/css">
   <![CDATA[
    .fil0 {fill:black;fill-rule:nonzero}
   ]]>
  </style></defs><g id="Layer_x0020_1"><path class="fil0" d="M246.56 104.38l-80.09 0 0 -70.25c28.07,7.53 51.69,27.11 64.22,53.76 1.86,3.98 6.58,5.68 10.56,3.8 3.96,-1.87 5.67,-6.59 3.81,-10.55 -16.12,-34.24 -47.98,-58.43 -85.2,-64.68 -2.33,-0.37 -4.66,0.26 -6.45,1.76 -1.78,1.52 -2.8,3.73 -2.8,6.07l0 88.03c0,4.39 3.54,7.94 7.93,7.94l88.02 0c4.39,0 7.94,-3.55 7.94,-7.94 0,-4.38 -3.55,-7.94 -7.94,-7.94zm-31.74 39.08l-87.29 0 0 -61.18c0,-4.37 -3.55,-7.93 -7.94,-7.93 -4.39,0 -7.94,3.56 -7.94,7.93l0 69.12c0,4.39 3.55,7.93 7.94,7.93l86.94 0c-4.01,44.44 -41.47,79.36 -86.94,79.36 -48.13,0 -87.29,-39.16 -87.29,-87.29 0,-48.14 39.16,-87.3 87.29,-87.3 4.39,0 7.94,-3.56 7.94,-7.93 0,-4.39 -3.55,-7.94 -7.94,-7.94 -56.88,0 -103.17,46.28 -103.17,103.17 0,56.88 46.29,103.16 103.17,103.16 56.89,0 103.16,-46.28 103.16,-103.16 0,-4.39 -3.54,-7.94 -7.93,-7.94z"/></g></svg>